<?xml version="1.0" standalone="no"?><!DOCTYPE svg PUBLIC "-//W3C//DTD SVG 1.1//EN" "http://www.w3.org/Graphics/SVG/1.1/DTD/svg11.dtd"><svg t="1783946740961" class="icon" viewBox="0 0 1170 1024" version="1.1" xmlns="http://www.w3.org/2000/svg" p-id="60148" xmlns:xlink="http://www.w3.org/1999/xlink" width="36.5625" height="32"><path d="M1160.674743 237.421714c-28.086857-64-113.883429-95.451429-230.912-95.085714A487.716571 487.716571 0 0 0 585.1136 0C314.850743 0 95.1296 220.598857 95.1296 491.812571c0 6.582857 0.146286 13.092571 0.438857 19.529143C16.354743 597.650286-18.388114 682.276571 9.552457 746.203429c28.16 64.073143 113.956571 95.597714 231.131429 95.085714a487.570286 487.570286 0 0 0 344.356571 142.409143c270.189714 0 490.130286-220.598857 490.130286-491.885715 0-6.509714-0.073143-12.946286-0.365714-19.382857 79.213714-86.308571 113.883429-171.008 85.796571-235.008z m-37.961143 18.285715c20.041143 45.568-0.731429 104.96-52.077714 168.155428a490.569143 490.569143 0 0 0-105.618286-242.541714c80.457143 4.754286 137.874286 29.184 157.696 74.459428zM585.186743 52.809143c235.958857 0 428.836571 188.342857 437.248 423.131428-80.530286 77.238857-201.069714 156.16-344.137143 219.428572-20.041143 8.777143-40.228571 17.261714-60.708571 25.307428V645.046857h126.171428v-52.516571H617.589029v-71.460572h126.171428v-51.931428h-108.251428l137.508571-234.569143h-69.266286L625.854171 378.441143c-20.772571 39.058286-33.426286 64.950857-38.107428 77.824h-1.389714c-13.677714-31.232-52.297143-105.033143-115.931429-221.769143H397.136457l136.265143 234.788571H421.712457v51.931429h130.779429v71.387429H421.712457v52.516571h130.925714v99.181714c-101.229714 34.230857-196.534857 53.76-276.48 58.075429a438.491429 438.491429 0 0 1-128.585142-310.564572C147.573029 249.709714 343.888457 52.662857 585.186743 52.662857zM55.120457 727.771429C35.883886 684.105143 54.315886 627.858286 100.907886 567.588571c13.677714 87.917714 50.468571 168.228571 104.155428 234.276572-76.507429-5.851429-130.706286-30.427429-149.942857-74.24z m529.993143 203.190857a434.395429 434.395429 0 0 1-269.897143-93.696c111.323429-11.556571 242.102857-46.884571 375.076572-105.691429 133.12-58.88 247.442286-131.876571 331.117714-206.555428-16.896 226.742857-206.043429 405.942857-436.297143 405.942857z" fill="#333333" p-id="60149"></path></svg>